<?xml version="1.0" standalone="no"?>
<!DOCTYPE svg PUBLIC "-//W3C//DTD SVG 20010904//EN"
 "http://www.w3.org/TR/2001/REC-SVG-20010904/DTD/svg10.dtd">
<svg version="1.0" xmlns="http://www.w3.org/2000/svg"
 width="50.000000pt" height="50.000000pt" viewBox="0 0 50.000000 50.000000"
 preserveAspectRatio="xMidYMid meet">

<g transform="translate(0.000000,50.000000) scale(0.100000,-0.100000)"
fill="#000000" stroke="none">
<path d="M57 434 c-4 -4 -7 -15 -7 -24 0 -9 -11 -22 -25 -28 -25 -12 -25 -12
-25 -155 0 -98 4 -147 12 -155 17 -17 459 -17 476 0 8 8 12 56 12 149 0 112
-3 141 -16 153 -8 9 -19 16 -24 16 -5 0 -10 10 -12 23 -3 19 -9 22 -53 22 -44
0 -50 -3 -53 -22 -3 -22 -8 -23 -92 -23 -84 0 -89 1 -92 23 -3 19 -10 22 -48
25 -25 2 -49 0 -53 -4z m83 -24 c0 -16 -7 -20 -35 -20 -28 0 -35 4 -35 20 0
16 7 20 35 20 28 0 35 -4 35 -20z m290 0 c0 -16 -7 -20 -35 -20 -28 0 -35 4
-35 20 0 16 7 20 35 20 28 0 35 -4 35 -20z m50 -60 c6 -11 8 -25 5 -30 -4 -6
-97 -10 -236 -10 l-229 0 0 23 c0 13 3 27 7 30 3 4 104 7 224 7 209 0 219 -1
229 -20z m8 -147 c4 -143 21 -134 -241 -131 l-222 3 -3 113 -3 112 233 -2 233
-3 3 -92z"/>
<path d="M232 232 c-57 -51 -62 -62 -32 -62 19 0 20 -2 5 -30 -26 -50 -17 -51
48 -4 69 51 79 64 47 64 -22 0 -23 14 -4 64 10 27 -9 17 -64 -32z m29 -21 c-9
-16 -8 -22 5 -29 13 -7 12 -11 -10 -26 -27 -17 -35 -9 -14 12 9 9 7 12 -12 12
l-24 0 29 30 c31 33 43 33 26 1z"/>
</g>
</svg>
