<?xml version="1.0" standalone="no"?>
<!DOCTYPE svg PUBLIC "-//W3C//DTD SVG 20010904//EN"
 "http://www.w3.org/TR/2001/REC-SVG-20010904/DTD/svg10.dtd">
<svg version="1.0" xmlns="http://www.w3.org/2000/svg"
 width="512.000000pt" height="512.000000pt" viewBox="0 0 512.000000 512.000000"
 preserveAspectRatio="xMidYMid meet">

<g transform="translate(0.000000,512.000000) scale(0.100000,-0.100000)"
fill="#000000" stroke="none">
<path d="M765 5104 c-59 -21 -110 -67 -139 -126 l-26 -52 0 -798 0 -798 -50 0
-50 0 0 114 c0 101 -2 117 -23 146 -40 59 -75 70 -225 70 -159 0 -198 -14
-232 -85 -19 -38 -20 -62 -20 -341 0 -334 2 -345 70 -391 31 -21 44 -23 184
-23 132 0 155 3 183 20 50 30 58 53 63 190 l5 125 48 3 47 3 0 -470 0 -471
-50 0 c-55 0 -104 -20 -114 -45 -3 -9 -6 -343 -6 -741 0 -628 2 -730 15 -761
42 -100 121 -152 245 -160 l78 -6 4 -126 c3 -111 6 -133 29 -181 33 -70 95
-132 167 -167 l57 -28 255 0 255 0 57 28 c72 35 134 97 167 167 23 49 26 70
29 182 l4 128 768 0 768 0 4 -127 c3 -113 6 -134 29 -183 33 -70 95 -132 167
-167 l57 -28 255 0 255 0 57 28 c72 35 134 97 167 167 23 48 26 70 29 181 l4
126 78 6 c124 8 203 60 245 160 13 31 15 133 15 761 0 398 -3 732 -6 741 -10
25 -59 45 -114 45 l-50 0 0 471 0 470 48 -3 47 -3 5 -121 c6 -133 16 -159 73
-194 28 -17 51 -20 178 -20 135 0 149 2 179 23 68 46 70 57 70 391 0 279 -1
303 -20 341 -34 71 -73 85 -232 85 -150 0 -185 -11 -226 -70 -20 -29 -22 -45
-22 -146 l0 -114 -50 0 -50 0 0 798 0 798 -26 52 c-14 29 -42 65 -62 82 -78
64 49 60 -1876 59 -1493 0 -1757 -3 -1791 -15z m3544 -169 c16 -8 31 -22 35
-30 3 -9 6 -617 6 -1351 l0 -1334 -85 0 -85 0 -2 903 c-3 901 -3 902 -25 949
-32 70 -94 131 -166 164 l-62 29 -257 3 -258 4 0 144 c0 130 -2 146 -20 164
-27 27 -64 34 -96 18 -46 -21 -54 -50 -54 -195 l0 -133 -124 0 -124 0 -4 144
c-3 158 -11 178 -68 191 -32 7 -84 -15 -94 -40 -3 -9 -6 -79 -6 -156 l0 -139
-130 0 -130 0 0 135 c0 79 -5 144 -11 159 -25 54 -123 54 -148 0 -6 -15 -11
-80 -11 -159 l0 -135 -130 0 -130 0 0 145 c0 131 -2 147 -20 165 -27 27 -64
34 -96 18 -46 -21 -54 -50 -54 -195 l0 -133 -124 0 -124 0 -4 144 c-3 158 -11
178 -68 191 -32 7 -84 -15 -94 -40 -3 -9 -6 -79 -6 -155 l0 -137 -172 -5
c-163 -4 -176 -6 -235 -33 -72 -32 -134 -93 -166 -163 -22 -47 -22 -48 -25
-949 l-2 -903 -85 0 -85 0 0 1338 c0 1415 -2 1355 45 1380 14 8 515 11 1743
12 1493 0 1727 -2 1751 -15z m-380 -860 c19 -11 43 -33 55 -48 21 -28 21 -30
24 -1003 l2 -974 255 0 255 0 0 -430 0 -430 -1960 0 -1960 0 0 430 0 430 255
0 255 0 0 960 c0 1025 -1 1000 48 1043 53 48 14 46 1417 44 1300 -2 1321 -2
1354 -22z m-3589 -830 l0 -255 -85 0 -85 0 0 255 0 255 85 0 85 0 0 -255z
m4610 0 l0 -255 -85 0 -85 0 0 255 0 255 85 0 85 0 0 -255z m-430 -2367 c-1
-154 -5 -169 -54 -188 -38 -14 -3774 -14 -3812 0 -49 19 -53 34 -54 188 l0
142 1960 0 1960 0 0 -142z m-2900 -467 c0 -110 -8 -142 -48 -185 -48 -51 -73
-56 -291 -56 -212 0 -238 4 -285 48 -45 42 -56 80 -56 192 l0 100 340 0 340 0
0 -99z m2560 0 c0 -110 -8 -142 -48 -185 -48 -51 -73 -56 -291 -56 -212 0
-238 4 -285 48 -45 42 -56 80 -56 192 l0 100 340 0 340 0 0 -99z"/>
<path d="M1526 3820 c-63 -25 -109 -69 -136 -131 -20 -48 -20 -59 -18 -632 l3
-584 30 -49 c37 -58 99 -100 174 -114 73 -14 1889 -14 1962 0 75 14 137 56
174 114 l30 49 3 581 c2 523 1 585 -14 625 -25 65 -76 117 -140 141 -54 20
-72 20 -1037 20 -944 -1 -984 -2 -1031 -20z m2035 -179 c18 -22 19 -47 19
-568 0 -348 -4 -551 -10 -563 -18 -34 -76 -40 -359 -40 l-275 0 152 154 c137
139 152 157 152 188 0 46 -40 88 -83 88 -26 0 -60 -30 -247 -215 l-216 -215
-257 0 c-141 0 -257 3 -257 7 0 4 65 73 145 154 133 135 145 150 145 183 0 48
-36 86 -82 86 -28 0 -56 -24 -248 -215 l-216 -215 -144 0 c-156 0 -214 10
-230 40 -14 27 -14 1094 1 1121 6 11 20 24 32 29 12 5 444 8 990 7 l969 -2 19
-24z"/>
<path d="M2168 1946 c-40 -30 -43 -99 -6 -133 19 -17 47 -18 398 -18 351 0
379 1 398 18 37 34 34 103 -6 133 -25 19 -759 19 -784 0z"/>
<path d="M1050 1869 c-92 -18 -172 -101 -190 -197 -21 -111 32 -224 129 -274
130 -68 293 -14 352 117 40 87 14 232 -52 292 -61 54 -154 79 -239 62z m91
-169 c5 0 18 -9 29 -20 28 -28 27 -87 -2 -117 -24 -26 -83 -31 -111 -10 -24
17 -36 66 -24 101 10 29 61 59 85 51 8 -3 18 -5 23 -5z"/>
<path d="M3953 1870 c-117 -24 -193 -121 -193 -250 0 -149 101 -249 251 -250
163 0 279 141 249 302 -27 141 -161 227 -307 198z m87 -171 c57 -20 72 -111
23 -146 -50 -38 -133 2 -133 63 0 55 10 68 76 94 1 0 16 -5 34 -11z"/>
<path d="M1905 1595 c-41 -40 -33 -105 16 -130 42 -22 1236 -22 1278 0 49 25
57 90 16 130 l-24 25 -631 0 -631 0 -24 -25z"/>
</g>
</svg>
