<?xml version="1.0" standalone="no"?>
<!DOCTYPE svg PUBLIC "-//W3C//DTD SVG 20010904//EN"
 "http://www.w3.org/TR/2001/REC-SVG-20010904/DTD/svg10.dtd">
<svg version="1.0" xmlns="http://www.w3.org/2000/svg"
 width="512.000000pt" height="512.000000pt" viewBox="0 0 512.000000 512.000000"
 preserveAspectRatio="xMidYMid meet">

<g transform="translate(0.000000,512.000000) scale(0.100000,-0.100000)"
fill="#000000" stroke="none">
<path d="M163 4093 c-13 -2 -32 -16 -43 -30 -20 -25 -20 -37 -20 -1280 0
-1104 2 -1258 15 -1283 9 -17 17 -31 18 -32 1 -1 101 -4 221 -8 l220 -5 12
-48 c30 -119 111 -230 218 -299 164 -106 388 -106 552 0 106 69 203 205 220
310 l7 42 1037 0 1038 0 7 -32 c28 -133 135 -273 254 -337 85 -45 154 -61 255
-61 146 1 258 49 363 157 55 56 116 168 128 236 l7 37 143 0 c79 0 151 3 160
6 43 17 45 40 45 499 l0 436 -327 562 c-180 309 -340 574 -355 590 l-26 27
-436 0 -436 0 0 229 c0 229 0 230 -24 258 l-24 28 -1604 1 c-881 1 -1613 -1
-1625 -3z m3124 -470 c-4 -174 -7 -633 -7 -1020 l0 -703 -917 0 -916 0 -52 40
c-188 145 -442 145 -630 0 l-52 -40 -226 0 -227 0 0 1020 0 1020 1517 0 1516
0 -6 -317z m1010 -288 l54 -90 -332 -5 -331 -5 -19 -24 c-18 -22 -19 -45 -19
-439 0 -413 0 -416 22 -439 l21 -23 584 0 583 0 0 -350 0 -351 -92 3 -92 3
-16 55 c-65 216 -241 360 -459 376 -237 18 -456 -135 -524 -363 l-21 -73 -108
0 -108 0 0 910 0 910 402 -2 402 -3 53 -90z m327 -558 c97 -167 176 -306 176
-310 0 -4 -225 -7 -500 -7 l-500 0 0 310 0 310 324 0 323 0 177 -303z m-3417
-906 c107 -41 190 -136 219 -251 31 -124 -6 -250 -102 -340 -79 -75 -129 -94
-244 -94 -115 0 -165 19 -244 94 -78 74 -110 150 -110 260 -1 71 4 94 26 142
80 173 281 256 455 189z m3018 18 c84 -15 144 -49 203 -113 71 -79 95 -146 90
-256 -6 -140 -72 -241 -196 -302 -60 -30 -75 -33 -157 -33 -77 0 -98 4 -147
27 -73 34 -142 103 -176 176 -23 49 -27 70 -27 152 0 76 5 104 22 142 47 102
160 189 270 208 26 4 51 8 54 9 3 0 32 -4 64 -10z m-3632 -201 c-9 -29 -17
-59 -19 -65 -3 -10 -43 -13 -159 -13 l-155 0 0 65 0 65 174 0 174 0 -15 -52z
m2687 -13 l0 -65 -845 0 c-668 0 -846 3 -849 13 -2 6 -10 36 -19 65 l-15 52
864 0 864 0 0 -65z"/>
<path d="M979 1733 c-74 -38 -111 -93 -117 -172 -5 -71 10 -121 51 -167 136
-155 387 -62 387 144 0 91 -44 161 -124 198 -69 32 -128 31 -197 -3z m146
-148 c30 -29 32 -64 5 -93 -41 -44 -120 -15 -120 43 0 31 41 75 70 75 12 0 32
-11 45 -25z"/>
<path d="M4095 1749 c-85 -24 -149 -118 -149 -215 1 -234 321 -302 420 -90 40
86 28 169 -34 238 -62 69 -149 93 -237 67z m98 -150 c64 -29 46 -129 -22 -129
-69 0 -98 77 -45 119 31 24 35 25 67 10z"/>
</g>
</svg>
