<?xml version="1.0" standalone="no"?>
<!DOCTYPE svg PUBLIC "-//W3C//DTD SVG 20010904//EN"
 "http://www.w3.org/TR/2001/REC-SVG-20010904/DTD/svg10.dtd">
<svg version="1.0" xmlns="http://www.w3.org/2000/svg"
 width="50.000000pt" height="50.000000pt" viewBox="0 0 50.000000 50.000000"
 preserveAspectRatio="xMidYMid meet">

<g transform="translate(0.000000,50.000000) scale(0.100000,-0.100000)"
fill="#000000" stroke="none">
<path d="M50 445 c0 -8 7 -15 15 -15 8 0 15 7 15 15 0 8 -7 15 -15 15 -8 0
-15 -7 -15 -15z"/>
<path d="M265 355 c-20 -36 -38 -65 -41 -65 -2 0 -38 25 -79 55 -40 30 -76 51
-79 47 -3 -5 25 -30 62 -58 l67 -49 -67 -3 -68 -3 0 -49 c0 -38 -4 -50 -15
-50 -8 0 -15 -9 -15 -20 0 -11 7 -20 15 -20 8 0 15 -9 15 -20 0 -18 7 -20 59
-20 50 0 59 -3 64 -20 12 -47 98 -51 119 -5 11 24 15 25 105 25 l93 0 0 160 0
160 -99 0 -99 0 -37 -65z m215 -90 l0 -145 -84 0 c-64 0 -85 3 -89 14 -3 8
-17 22 -32 32 -21 14 -30 14 -55 4 -16 -7 -32 -21 -35 -31 -5 -15 -16 -19 -56
-19 l-49 0 0 70 0 70 75 0 75 0 28 46 c15 25 35 59 44 75 17 28 20 29 98 29
l80 0 0 -145z m-209 -115 c22 -12 26 -59 7 -78 -17 -17 -48 -15 -70 5 -22 20
-23 32 -2 61 17 24 35 28 65 12z"/>
<path d="M307 321 c-15 -27 -27 -51 -27 -55 0 -3 32 -6 70 -6 l70 0 0 55 0 55
-43 0 c-42 0 -45 -2 -70 -49z"/>
<path d="M4 399 c-10 -17 13 -36 27 -22 12 12 4 33 -11 33 -5 0 -12 -5 -16
-11z"/>
<path d="M47 354 c-4 -4 -7 -16 -7 -26 0 -14 6 -19 23 -16 14 2 22 10 22 23 0
20 -25 32 -38 19z"/>
</g>
</svg>
