<?xml version="1.0" standalone="no"?>
<!DOCTYPE svg PUBLIC "-//W3C//DTD SVG 20010904//EN"
 "http://www.w3.org/TR/2001/REC-SVG-20010904/DTD/svg10.dtd">
<svg version="1.0" xmlns="http://www.w3.org/2000/svg"
 width="50.000000pt" height="50.000000pt" viewBox="0 0 50.000000 50.000000"
 preserveAspectRatio="xMidYMid meet">

<g transform="translate(0.000000,50.000000) scale(0.100000,-0.100000)"
fill="#000000" stroke="none">
<path d="M247 493 c-4 -3 -7 -35 -7 -70 l0 -64 -37 3 c-38 3 -38 3 -38 48 0
42 2 45 28 48 15 2 27 8 27 13 0 15 -47 10 -64 -6 -8 -8 -20 -15 -26 -15 -6 0
-13 -7 -16 -15 -4 -10 -20 -15 -48 -15 -23 0 -47 -5 -54 -12 -17 -17 -17 -289
0 -306 7 -7 22 -12 35 -12 16 0 23 -6 23 -20 0 -11 4 -20 10 -20 5 0 20 -11
34 -25 30 -30 37 -31 67 -6 20 16 22 23 14 47 -13 38 -67 47 -87 15 -18 -29
-28 -26 -28 8 0 63 -5 61 194 61 128 0 186 -4 194 -12 7 -7 12 -28 11 -47 0
-36 0 -36 -16 -14 -28 42 -93 25 -93 -23 0 -47 68 -64 91 -23 5 11 16 19 24
19 21 0 19 62 -3 90 -9 12 -33 25 -52 29 -29 5 -40 15 -60 54 l-25 47 -96 0
-95 0 -23 -47 c-13 -26 -31 -53 -42 -61 -10 -7 -19 -22 -19 -32 0 -23 -13 -32
-34 -24 -14 5 -16 28 -16 150 l0 144 44 0 c26 0 46 -5 49 -12 3 -7 6 -3 6 9 1
33 21 39 21 6 0 -39 17 -53 62 -53 21 0 38 -4 38 -10 0 -5 11 -10 25 -10 16 0
25 6 25 15 0 10 10 15 29 15 17 0 33 5 36 10 4 6 -8 10 -30 10 -35 0 -36 1
-33 33 3 28 7 33 38 38 l35 6 -37 2 c-31 1 -38 5 -38 21 0 20 -28 28 -43 13z
m33 -84 c0 -33 -4 -59 -10 -59 -6 0 -10 29 -10 66 0 41 4 63 10 59 6 -3 10
-33 10 -66z m75 -189 c23 -45 20 -50 -40 -50 -54 0 -55 0 -55 30 0 17 -4 30
-10 30 -5 0 -10 -13 -10 -30 l0 -30 -60 0 -60 0 20 40 20 40 90 0 c89 0 90 0
105 -30z m-187 -139 c8 -4 12 -19 10 -32 -4 -34 -52 -34 -56 0 -5 32 20 49 46
32z m272 -6 c26 -31 -18 -71 -47 -43 -12 12 -13 20 -4 37 14 25 34 27 51 6z"/>
<path d="M270 110 c0 -5 9 -10 19 -10 11 0 23 5 26 10 4 6 -5 10 -19 10 -14 0
-26 -4 -26 -10z"/>
<path d="M247 53 c18 -2 50 -2 70 0 21 2 7 4 -32 4 -38 0 -55 -2 -38 -4z"/>
</g>
</svg>
