<?xml version="1.0" standalone="no"?>
<!DOCTYPE svg PUBLIC "-//W3C//DTD SVG 20010904//EN"
 "http://www.w3.org/TR/2001/REC-SVG-20010904/DTD/svg10.dtd">
<svg version="1.0" xmlns="http://www.w3.org/2000/svg"
 width="56.000000pt" height="54.000000pt" viewBox="0 0 56.000000 54.000000"
 preserveAspectRatio="xMidYMid meet">

<g transform="translate(0.000000,54.000000) scale(0.100000,-0.100000)"
fill="#000000" stroke="none">
<path d="M126 408 c-9 -12 -16 -32 -17 -43 0 -11 -3 -14 -6 -7 -2 6 -20 12
-39 12 -29 0 -34 -3 -34 -24 0 -18 7 -25 30 -30 30 -5 30 -6 15 -30 -12 -18
-15 -43 -13 -97 l3 -74 42 -3 c34 -3 44 1 53 17 10 19 20 21 120 21 100 0 110
-2 120 -21 9 -16 19 -20 53 -17 l42 3 3 74 c2 54 -1 79 -13 97 -15 24 -15 25
15 30 23 5 30 12 30 30 0 21 -5 24 -34 24 -19 0 -37 -6 -39 -12 -3 -7 -6 -4
-6 7 -1 11 -8 31 -17 43 -14 21 -22 22 -154 22 -132 0 -140 -1 -154 -22z m303
-29 c25 -71 29 -69 -149 -69 -175 0 -168 -3 -149 63 l10 37 138 0 139 0 11
-31z m-349 -39 c0 -13 -11 -13 -30 0 -12 8 -11 10 8 10 12 0 22 -4 22 -10z
m430 0 c-19 -13 -30 -13 -30 0 0 6 10 10 23 10 18 0 19 -2 7 -10z m-42 -63 c6
-7 12 -42 14 -77 l3 -65 -32 -3 c-32 -3 -46 11 -20 21 6 3 -9 6 -35 6 -41 1
-48 4 -48 21 0 18 -7 20 -69 20 -60 0 -69 -2 -74 -20 -4 -16 -14 -20 -48 -20
-40 0 -42 -1 -23 -15 18 -14 16 -15 -21 -13 l-40 3 3 65 c2 35 8 70 14 77 15
19 361 19 376 0z m-133 -107 c-3 -5 -28 -10 -55 -10 -27 0 -52 5 -55 10 -4 6
17 10 55 10 38 0 59 -4 55 -10z"/>
<path d="M100 255 c-23 -28 -4 -45 49 -45 78 0 78 40 0 54 -26 5 -40 2 -49 -9z
m75 -15 c18 -7 18 -9 3 -15 -23 -9 -61 -2 -66 13 -4 14 31 15 63 2z"/>
<path d="M395 261 c-21 -4 -30 -12 -30 -26 0 -17 7 -20 50 -20 47 0 50 2 50
25 0 28 -18 33 -70 21z m60 -26 c0 -5 -17 -11 -37 -13 -38 -3 -53 12 -20 21
26 8 57 3 57 -8z"/>
</g>
</svg>
