<?xml version="1.0" standalone="no"?>
<!DOCTYPE svg PUBLIC "-//W3C//DTD SVG 20010904//EN"
 "http://www.w3.org/TR/2001/REC-SVG-20010904/DTD/svg10.dtd">
<svg version="1.0" xmlns="http://www.w3.org/2000/svg"
 width="50.000000pt" height="50.000000pt" viewBox="0 0 50.000000 50.000000"
 preserveAspectRatio="xMidYMid meet">

<g transform="translate(0.000000,50.000000) scale(0.100000,-0.100000)"
fill="#000000" stroke="none">
<path d="M241 399 c-26 -25 -31 -38 -31 -78 0 -44 -3 -50 -70 -116 -58 -58
-70 -75 -70 -102 0 -32 1 -33 40 -33 33 0 40 3 40 20 0 13 7 20 20 20 13 0 20
7 20 20 0 13 7 20 20 20 13 0 20 7 20 20 0 13 7 20 19 20 11 0 23 5 26 10 3 6
21 10 38 10 78 0 136 81 107 150 -19 46 -56 70 -106 70 -34 0 -48 -6 -73 -31z
m140 -8 c31 -32 39 -84 18 -123 -13 -24 -74 -51 -98 -43 -10 3 -24 -1 -31 -10
-7 -8 -21 -15 -31 -15 -11 0 -19 -7 -19 -16 0 -9 -9 -18 -20 -21 -11 -3 -20
-12 -20 -20 0 -8 -9 -17 -19 -20 -11 -3 -21 -13 -24 -24 -3 -11 -14 -19 -26
-19 -16 0 -21 6 -21 28 0 21 17 44 69 96 61 61 69 73 64 98 -18 92 92 155 158
89z"/>
<path d="M323 364 c-3 -8 1 -22 9 -30 19 -19 52 3 42 29 -8 21 -43 22 -51 1z
m37 -9 c0 -8 -4 -15 -9 -15 -13 0 -22 16 -14 24 11 11 23 6 23 -9z"/>
</g>
</svg>
