<?xml version="1.0" standalone="no"?>
<!DOCTYPE svg PUBLIC "-//W3C//DTD SVG 20010904//EN"
 "http://www.w3.org/TR/2001/REC-SVG-20010904/DTD/svg10.dtd">
<svg version="1.0" xmlns="http://www.w3.org/2000/svg"
 width="512.000000pt" height="512.000000pt" viewBox="0 0 512.000000 512.000000"
 preserveAspectRatio="xMidYMid meet">

<g transform="translate(0.000000,512.000000) scale(0.100000,-0.100000)"
fill="#000000" stroke="none">
<path d="M855 5106 c-163 -31 -200 -55 -200 -127 0 -38 8 -47 237 -277 l237
-237 12 -133 13 -133 -116 -116 -116 -116 -134 12 -133 12 -237 237 c-233 232
-238 237 -279 237 -33 0 -46 -6 -68 -31 -69 -77 -89 -393 -38 -589 148 -557
726 -886 1271 -724 l69 21 249 -249 248 -248 -34 -70 c-30 -62 -60 -151 -95
-280 -8 -29 -31 -61 -89 -118 l-78 -78 -98 -25 c-133 -33 -223 -72 -336 -145
-83 -53 -154 -120 -567 -532 -448 -448 -474 -476 -507 -546 -117 -245 -71
-509 118 -689 188 -178 446 -210 689 -86 65 34 114 80 528 493 328 329 470
478 508 534 72 107 135 244 164 358 14 53 29 104 35 115 5 10 43 51 84 90 68
66 78 72 137 83 77 15 185 53 262 92 l56 28 247 -248 248 -248 -21 -69 c-162
-545 166 -1122 724 -1271 195 -51 512 -31 589 38 25 22 31 35 31 68 0 41 -5
46 -237 279 l-237 237 -12 133 -13 133 117 116 116 117 133 -13 133 -12 237
-237 c233 -232 238 -237 279 -237 33 0 46 6 68 31 69 77 89 393 38 589 -106
400 -438 696 -846 756 -145 21 -294 6 -476 -46 -16 -5 -85 60 -355 329 l-335
336 157 157 c94 95 159 169 163 185 16 62 -35 123 -102 121 -34 -1 -57 -22
-359 -324 l-324 -324 -72 73 -73 72 850 853 851 852 78 160 79 160 200 128
200 129 84 -84 85 -85 -129 -200 -128 -201 -168 -83 -167 -84 -230 -230 c-223
-224 -230 -232 -230 -271 0 -22 7 -49 15 -60 20 -29 69 -48 102 -39 18 4 106
84 243 220 l215 213 180 91 180 90 155 242 c85 133 163 256 172 273 37 67 32
75 -149 258 -93 93 -179 172 -192 175 -14 3 -37 1 -53 -5 -16 -6 -144 -85
-286 -176 l-257 -165 -90 -180 -89 -180 -668 -668 -668 -668 -335 335 c-270
269 -335 339 -330 355 52 182 67 331 46 476 -60 408 -359 742 -756 845 -123
32 -313 41 -420 20z m385 -216 c222 -63 409 -218 510 -425 60 -123 79 -191 87
-320 7 -119 -5 -202 -49 -331 -22 -65 -29 -100 -24 -120 5 -20 121 -143 374
-396 l367 -368 -85 -85 c-46 -47 -89 -85 -95 -85 -6 0 -24 14 -41 31 -68 72
-172 91 -249 45 l-40 -23 -270 268 c-182 180 -279 270 -299 275 -20 5 -55 -2
-120 -24 -129 -44 -212 -56 -331 -49 -290 18 -547 183 -679 437 -59 113 -85
211 -93 340 l-5 105 183 -181 c173 -171 187 -182 229 -188 140 -18 355 -36
373 -30 28 8 343 319 363 357 14 25 14 46 0 185 -9 86 -19 177 -22 202 -6 42
-17 56 -188 229 l-181 183 105 -5 c58 -4 138 -16 180 -27z m1160 -2496 l265
-265 -35 -30 c-57 -49 -226 -127 -330 -153 -130 -31 -161 -50 -266 -158 -106
-108 -119 -130 -150 -255 -12 -51 -35 -121 -50 -155 -64 -148 -111 -202 -586
-674 -425 -424 -457 -453 -513 -475 -85 -32 -217 -32 -299 0 -83 33 -175 126
-205 205 -46 123 -35 257 29 356 44 68 893 909 969 960 90 60 190 104 309 134
57 14 118 33 135 42 46 24 211 192 234 239 11 22 28 73 37 114 9 41 30 108 46
150 29 75 122 231 137 231 5 0 127 -120 273 -266z m900 -258 c256 -256 374
-367 394 -372 22 -5 55 2 120 24 126 44 211 56 331 49 129 -8 197 -27 320 -87
158 -78 279 -195 359 -350 59 -113 85 -211 93 -340 l5 -105 -183 181 c-173
171 -187 182 -229 188 -140 18 -355 36 -373 30 -28 -8 -343 -319 -363 -357
-14 -25 -14 -46 0 -185 9 -86 19 -177 22 -202 6 -42 17 -56 188 -229 l181
-183 -105 6 c-133 7 -200 25 -325 86 -166 81 -284 199 -365 365 -60 123 -79
191 -87 320 -7 120 5 205 49 331 22 65 29 98 24 120 -5 20 -90 112 -273 296
l-266 266 22 44 c25 52 28 133 7 181 -7 18 -30 48 -50 66 -20 19 -36 40 -36
45 0 10 160 176 170 176 2 0 169 -164 370 -364z"/>
<path d="M3549 3401 c-40 -40 -40 -89 0 -133 76 -85 209 9 157 110 -32 61
-108 72 -157 23z"/>
</g>
</svg>
