<svg width="175" height="42" viewBox="0 0 175 42" fill="none" xmlns="http://www.w3.org/2000/svg">
<rect x="0.5" y="0.5" width="173.705" height="40.0841" rx="4.5" fill="white" stroke="black"/>
<path d="M57.7435 22.5549L60.3685 26.7907H60.4481L63.0731 22.5549H64.5248L61.3231 27.6458L64.5248 32.7367H63.0731L60.4481 28.5805H60.3685L57.7435 32.7367H56.2918L59.5731 27.6458L56.2918 22.5549H57.7435ZM66.7259 22.5549L69.3509 26.7907H69.4305L72.0555 22.5549H73.5072L70.3055 27.6458L73.5072 32.7367H72.0555L69.4305 28.5805H69.3509L66.7259 32.7367H65.2742L68.5555 27.6458L65.2742 22.5549H66.7259ZM75.7084 22.5549L78.3334 26.7907H78.4129L81.0379 22.5549H82.4896L79.2879 27.6458L82.4896 32.7367H81.0379L78.4129 28.5805H78.3334L75.7084 32.7367H74.2566L77.5379 27.6458L74.2566 22.5549H75.7084ZM84.6908 22.5549L87.3158 26.7907H87.3953L90.0203 22.5549H91.472L88.2703 27.6458L91.472 32.7367H90.0203L87.3953 28.5805H87.3158L84.6908 32.7367H83.2391L86.5203 27.6458L83.2391 22.5549H84.6908ZM93.6732 22.5549L96.2982 26.7907H96.3777L99.0027 22.5549H100.454L97.2527 27.6458L100.454 32.7367H99.0027L96.3777 28.5805H96.2982L93.6732 32.7367H92.2215L95.5027 27.6458L92.2215 22.5549H93.6732ZM102.656 22.5549L105.281 26.7907H105.36L107.985 22.5549H109.437L106.235 27.6458L109.437 32.7367H107.985L105.36 28.5805H105.281L102.656 32.7367H101.204L104.485 27.6458L101.204 22.5549H102.656ZM111.638 22.5549L114.263 26.7907H114.343L116.968 22.5549H118.419L115.218 27.6458L118.419 32.7367H116.968L114.343 28.5805H114.263L111.638 32.7367H110.186L113.468 27.6458L110.186 22.5549H111.638Z" fill="black"/>
<path d="M2.25426 5.63114C2.25426 3.422 4.04512 1.63113 6.25426 1.63113H168.451C170.66 1.63113 172.451 3.422 172.451 5.63113V14.6802H2.25426V5.63114Z" fill="#1306A8"/>
</svg>
