<?xml version="1.0" standalone="no"?>
<!DOCTYPE svg PUBLIC "-//W3C//DTD SVG 20010904//EN"
 "http://www.w3.org/TR/2001/REC-SVG-20010904/DTD/svg10.dtd">
<svg version="1.0" xmlns="http://www.w3.org/2000/svg"
 width="50.000000pt" height="50.000000pt" viewBox="0 0 50.000000 50.000000"
 preserveAspectRatio="xMidYMid meet">

<g transform="translate(0.000000,50.000000) scale(0.100000,-0.100000)"
fill="#000000" stroke="none">
<path d="M133 450 c-75 -43 -113 -111 -113 -200 0 -50 6 -75 24 -107 21 -37
22 -43 8 -56 -8 -9 -12 -23 -9 -31 6 -14 34 -16 207 -16 173 0 201 2 207 16 3
8 -1 22 -9 31 -14 13 -13 19 8 56 18 32 24 57 24 107 0 135 -95 230 -230 230
-54 0 -74 -5 -117 -30z m182 9 c53 -15 129 -91 144 -144 20 -72 6 -151 -35
-196 -18 -19 -18 -21 -1 -30 9 -6 17 -17 17 -24 0 -13 -30 -15 -184 -15 -188
0 -221 7 -181 36 18 13 18 15 1 33 -23 25 -45 87 -46 126 -1 114 104 223 215
225 17 0 48 -5 70 -11z"/>
<path d="M172 394 c-99 -51 -111 -211 -19 -276 41 -30 123 -36 171 -13 103 49
117 211 23 277 -41 29 -129 35 -175 12z m144 -15 c44 -21 84 -81 84 -127 0
-57 -50 -124 -107 -143 -99 -32 -208 64 -189 166 12 64 82 124 145 125 14 0
44 -9 67 -21z"/>
<path d="M195 370 c-11 -4 -31 -20 -45 -35 -21 -22 -25 -37 -25 -86 0 -53 3
-62 33 -91 29 -30 38 -33 93 -33 57 0 62 2 96 39 33 36 35 41 31 94 -4 48 -10
60 -41 89 -30 27 -44 33 -79 32 -24 0 -52 -4 -63 -9z m73 -49 l3 -42 36 22
c29 18 37 19 44 8 6 -10 -2 -19 -27 -33 -18 -11 -34 -23 -34 -26 0 -3 16 -15
34 -26 25 -14 33 -23 27 -33 -7 -11 -15 -10 -44 8 l-36 22 -3 -43 c-4 -60 -32
-60 -36 0 l-3 43 -36 -22 c-29 -18 -37 -19 -44 -8 -6 10 2 19 27 33 18 11 34
23 34 26 0 3 -16 15 -34 26 -25 14 -33 23 -27 33 7 11 16 10 45 -8 l36 -23 0
40 c0 68 33 71 38 3z m-48 14 c0 -28 -3 -30 -32 -14 -21 11 -21 12 -3 25 27
20 35 17 35 -11z m95 11 c18 -13 18 -14 -3 -25 -29 -16 -32 -14 -32 14 0 28 8
31 35 11z m-145 -86 c13 -9 13 -11 0 -20 -24 -16 -40 -12 -40 10 0 22 16 26
40 10z m200 -10 c0 -22 -16 -26 -40 -10 -13 9 -13 11 0 20 24 16 40 12 40 -10z
m-150 -85 c0 -28 -3 -30 -32 -14 -21 11 -21 12 -3 25 27 20 35 17 35 -11z m95
11 c18 -13 18 -14 -3 -25 -29 -16 -32 -14 -32 14 0 28 8 31 35 11z"/>
<path d="M230 250 c0 -13 7 -20 20 -20 13 0 20 7 20 20 0 13 -7 20 -20 20 -13
0 -20 -7 -20 -20z"/>
</g>
</svg>
