<?xml version="1.0" standalone="no"?>
<!DOCTYPE svg PUBLIC "-//W3C//DTD SVG 20010904//EN"
 "http://www.w3.org/TR/2001/REC-SVG-20010904/DTD/svg10.dtd">
<svg version="1.0" xmlns="http://www.w3.org/2000/svg"
 width="45.000000pt" height="45.000000pt" viewBox="0 0 45.000000 45.000000"
 preserveAspectRatio="xMidYMid meet">

<g transform="translate(0.000000,45.000000) scale(0.100000,-0.100000)"
fill="#000000" stroke="none">
<path d="M87 443 c-4 -3 -7 -86 -7 -184 0 -168 -1 -179 -20 -189 -13 -7 -20
-21 -20 -40 l0 -30 165 0 165 0 0 30 c0 18 -6 33 -15 36 -10 4 -15 20 -15 46
0 23 4 37 10 33 6 -3 10 -14 10 -25 0 -19 17 -30 38 -23 9 4 12 43 12 152 0
135 -2 149 -20 166 -25 23 -39 12 -16 -14 15 -16 15 -19 1 -31 -19 -16 -19
-64 0 -80 18 -15 23 -186 5 -175 -5 3 -10 15 -10 26 0 11 -7 22 -15 25 -12 5
-15 29 -15 126 0 66 -5 128 -10 139 -10 17 -22 19 -124 19 -62 0 -116 -3 -119
-7z m228 -193 l0 -175 -110 0 -110 0 -3 165 c-1 90 0 170 3 177 3 11 30 13
112 11 l108 -3 0 -175z m75 73 c-1 -24 -2 -26 -11 -10 -5 9 -7 22 -4 27 10 17
15 11 15 -17z m-42 -275 c7 -7 12 -16 12 -20 0 -4 -67 -8 -150 -8 -118 0 -150
3 -150 13 0 8 3 17 7 20 12 13 268 8 281 -5z"/>
<path d="M112 348 l3 -63 93 -3 92 -3 0 66 0 65 -95 0 -96 0 3 -62z m168 -3
l0 -45 -75 0 -75 0 0 45 0 45 75 0 75 0 0 -45z"/>
</g>
</svg>
