<?xml version="1.0" standalone="no"?>
<!DOCTYPE svg PUBLIC "-//W3C//DTD SVG 20010904//EN"
 "http://www.w3.org/TR/2001/REC-SVG-20010904/DTD/svg10.dtd">
<svg version="1.0" xmlns="http://www.w3.org/2000/svg"
 width="51.000000pt" height="56.000000pt" viewBox="0 0 51.000000 56.000000"
 preserveAspectRatio="xMidYMid meet">

<g transform="translate(0.000000,56.000000) scale(0.100000,-0.100000)"
fill="#000000" stroke="none">
<path d="M105 343 c-90 -156 -105 -188 -93 -197 10 -7 83 -9 224 -6 181 4 209
7 212 21 4 22 -206 369 -223 369 -7 0 -62 -84 -120 -187z m235 -14 c92 -154
97 -164 77 -171 -27 -7 -397 -10 -397 -2 0 5 52 96 162 287 26 45 43 66 50 59
5 -5 54 -83 108 -173z"/>
<path d="M213 418 c-18 -23 -123 -209 -123 -219 0 -11 267 -12 274 -1 5 9
-102 194 -126 219 -12 11 -17 12 -25 1z m79 -116 l58 -97 -117 -3 c-63 -1
-117 -1 -120 1 -2 2 23 49 54 105 32 55 60 99 62 96 2 -2 31 -48 63 -102z"/>
</g>
</svg>
